<svg width="1103.6012451171875px" height="122.021240234375px" xmlns="http://www.w3.org/2000/svg" viewBox="-301.8006225585938 13.9893798828125 1103.6012451171875 122.021240234375" style="background: rgba(0, 0, 0, 0);" preserveAspectRatio="xMidYMid"><defs><linearGradient id="editing-gradow-gradient" x1="0" x2="1" y1="0.5" y2="0.5" gradientUnits="objectBoundingBox"><stop offset="0" stop-color="#f0f"></stop><stop offset="1" stop-color="#0ff"></stop></linearGradient><filter id="editing-gradow-filter" x="-100%" y="-100%" width="300%" height="300%"><feFlood flood-color="#fffcd9" result="flood"></feFlood><feComposite operator="in" in2="SourceAlpha" in="flood" result="shadow"></feComposite><feOffset dx="-4" dy="-4" in="SourceGraphic" result="offset-1"></feOffset><feOffset dx="4" dy="4" in="shadow" result="offset-2"></feOffset><feMerge><feMergeNode in="offset-2"></feMergeNode><feMergeNode in="offset-1"></feMergeNode></feMerge></filter></defs><g filter="url(#editing-gradow-filter)"><g transform="translate(-147.2753136754036, 103.21218872070312)"><path d="M-0.64-3.78L-0.64-3.78L-0.64-3.78Q-0.64-6.21 1.18-7.52L1.18-7.52L1.18-7.52Q3.01-8.83 5.70-8.83L5.70-8.83L5.70-8.83Q8.38-8.83 10.08-7.52L10.08-7.52L10.08-7.52Q11.78-6.21 11.78-3.78L11.78-3.78L11.78-3.78Q11.78-1.34 9.89 0L9.89 0L9.89 0Q8 1.34 5.31 1.34L5.31 1.34L5.31 1.34Q2.62 1.34 0.99 0L0.99 0L0.99 0Q-0.64-1.34-0.64-3.78ZM2.82-15.81L2.82-15.81L2.82-15.81Q2.82-16.26 2.94-16.90L2.94-16.90L7.94-42.62L7.94-42.62Q10.30-43.52 13.12-43.52L13.12-43.52L13.12-43.52Q15.94-43.52 17.41-41.73L17.41-41.73L17.41-41.73Q18.88-39.94 18.88-37.28L18.88-37.28L18.88-37.28Q18.88-34.62 17.86-31.65L17.86-31.65L17.86-31.65Q16.83-28.67 15.58-25.66L15.58-25.66L15.58-25.66Q14.34-22.66 13.28-19.55L13.28-19.55L13.28-19.55Q12.22-16.45 12.16-13.18L12.16-13.18L12.16-13.18Q10.69-11.52 8.13-11.52L8.13-11.52L8.13-11.52Q5.57-11.52 4.19-12.70L4.19-12.70L4.19-12.70Q2.82-13.89 2.82-15.81ZM17.92-3.78L17.92-3.78L17.92-3.78Q17.92-6.21 19.74-7.52L19.74-7.52L19.74-7.52Q21.57-8.83 24.26-8.83L24.26-8.83L24.26-8.83Q26.94-8.83 28.64-7.52L28.64-7.52L28.64-7.52Q30.34-6.21 30.34-3.78L30.34-3.78L30.34-3.78Q30.34-1.34 28.45 0L28.45 0L28.45 0Q26.56 1.34 23.87 1.34L23.87 1.34L23.87 1.34Q21.18 1.34 19.55 0L19.55 0L19.55 0Q17.92-1.34 17.92-3.78ZM21.38-15.81L21.38-15.81L21.38-15.81Q21.38-16.26 21.50-16.90L21.50-16.90L26.50-42.62L26.50-42.62Q28.86-43.52 31.68-43.52L31.68-43.52L31.68-43.52Q34.50-43.52 35.97-41.73L35.97-41.73L35.97-41.73Q37.44-39.94 37.44-37.28L37.44-37.28L37.44-37.28Q37.44-34.62 36.42-31.65L36.42-31.65L36.42-31.65Q35.39-28.67 34.14-25.66L34.14-25.66L34.14-25.66Q32.90-22.66 31.84-19.55L31.84-19.55L31.84-19.55Q30.78-16.45 30.72-13.18L30.72-13.18L30.72-13.18Q29.25-11.52 26.69-11.52L26.69-11.52L26.69-11.52Q24.13-11.52 22.75-12.70L22.75-12.70L22.75-12.70Q21.38-13.89 21.38-15.81ZM63.17-29.57L63.17-29.57L63.17-29.57Q64.13-31.49 64.13-33.28L64.13-33.28L64.13-33.28Q64.13-35.07 63.94-36.06L63.94-36.06L63.94-36.06Q63.74-37.06 63.30-37.82L63.30-37.82L63.30-37.82Q62.34-39.49 60.42-39.49L60.42-39.49L60.42-39.49Q58.05-39.49 56.13-37.76L56.13-37.76L56.13-37.76Q54.08-35.97 54.08-33.15L54.08-33.15L54.08-33.15Q54.08-31.36 55.33-29.98L55.33-29.98L55.33-29.98Q56.58-28.61 58.50-27.33L58.50-27.33L58.50-27.33Q60.42-26.05 62.59-24.77L62.59-24.77L62.59-24.77Q64.77-23.49 66.69-21.95L66.69-21.95L66.69-21.95Q71.10-18.43 71.10-13.70L71.10-13.70L71.10-13.70Q71.10-10.50 69.41-7.78L69.41-7.78L69.41-7.78Q67.71-5.06 64.90-3.07L64.90-3.07L64.90-3.07Q58.75 1.28 50.62 1.28L50.62 1.28L50.62 1.28Q44.03 1.28 40.64-0.86L40.64-0.86L40.64-0.86Q37.25-3.01 37.25-6.27L37.25-6.27L37.25-6.27Q37.25-12.10 41.79-13.57L41.79-13.57L41.79-13.57Q43.07-14.02 45.02-14.02L45.02-14.02L45.02-14.02Q46.98-14.02 49.22-13.18L49.22-13.18L49.22-13.18Q48.19-10.56 48.19-8.19L48.19-8.19L48.19-8.19Q48.19-3.07 51.84-3.07L51.84-3.07L51.84-3.07Q54.21-3.07 56.16-4.80L56.16-4.80L56.16-4.80Q58.11-6.53 58.11-8.48L58.11-8.48L58.11-8.48Q58.11-10.43 56.86-11.84L56.86-11.84L56.86-11.84Q55.62-13.25 53.76-14.37L53.76-14.37L53.76-14.37Q51.90-15.49 49.76-16.58L49.76-16.58L49.76-16.58Q47.62-17.66 45.76-19.20L45.76-19.20L45.76-19.20Q41.41-22.72 41.41-28.35L41.41-28.35L41.41-28.35Q41.41-32 43.20-34.85L43.20-34.85L43.20-34.85Q44.99-37.70 47.87-39.62L47.87-39.62L47.87-39.62Q53.63-43.52 60.70-43.52L60.70-43.52L60.70-43.52Q67.78-43.52 71.20-41.41L71.20-41.41L71.20-41.41Q74.62-39.30 74.62-35.71L74.62-35.71L74.62-35.71Q74.62-32.58 72.19-30.59L72.19-30.59L72.19-30.59Q70.08-28.93 67.52-28.93L67.52-28.93L67.52-28.93Q64.96-28.93 63.17-29.57ZM96.51-2.69L96.51-2.69L96.51-2.69Q93.44 1.28 85.82 1.28L85.82 1.28L85.82 1.28Q81.86 1.28 78.98-1.12L78.98-1.12L78.98-1.12Q76.10-3.52 76.10-6.98L76.10-6.98L76.10-6.98Q76.10-8.90 76.29-9.86L76.29-9.86L80.58-32.64L93.57-33.92L88.90-9.22L88.90-9.22Q88.64-7.81 88.64-6.98L88.64-6.98L88.64-6.98Q88.64-3.26 90.88-3.26L90.88-3.26L90.88-3.26Q93.38-3.26 95.17-6.66L95.17-6.66L95.17-6.66Q95.74-7.74 96-9.15L96-9.15L100.54-32.64L113.15-33.92L108.42-8.96L108.42-8.96Q108.22-8 108.22-6.98L108.22-6.98L108.22-6.98Q108.22-5.95 108.80-4.83L108.80-4.83L108.80-4.83Q109.38-3.71 111.23-3.46L111.23-3.46L111.23-3.46Q110.85-1.92 109.50-0.90L109.50-0.90L109.50-0.90Q106.69 1.28 103.65 1.28L103.65 1.28L103.65 1.28Q100.61 1.28 98.82 0.19L98.82 0.19L98.82 0.19Q97.02-0.90 96.51-2.69ZM146.43-4.38L146.43-4.38L146.43-4.38Q143.74-1.66 140.06-0.19L140.06-0.19L140.06-0.19Q136.38 1.28 132.74 1.28L132.74 1.28L132.74 1.28Q129.09 1.28 127.81 0.64L127.81 0.64L125.82 11.52L112.83 12.80L121.66-32.64L132.10-33.73L131.26-29.31L131.26-29.31Q133.95-33.86 139.52-33.86L139.52-33.86L139.52-33.86Q145.79-33.86 149.12-29.82L149.12-29.82L149.12-29.82Q152.06-26.18 152.06-20.61L152.06-20.61L152.06-20.61Q152.06-15.04 150.59-11.07L150.59-11.07L150.59-11.07Q149.12-7.10 146.43-4.38ZM131.97-22.34L128.58-3.58L128.58-3.58Q129.92-2.43 131.58-2.43L131.58-2.43L131.58-2.43Q133.25-2.43 134.21-3.07L134.21-3.07L134.21-3.07Q135.17-3.71 135.87-4.99L135.87-4.99L135.87-4.99Q137.79-8.45 139.33-18.94L139.33-18.94L139.33-18.94Q139.78-22.02 139.78-25.02L139.78-25.02L139.78-25.02Q139.78-28.03 139.10-28.99L139.10-28.99L139.10-28.99Q138.43-29.95 137.15-29.95L137.15-29.95L137.15-29.95Q133.25-29.95 131.97-22.34L131.97-22.34ZM185.73-4.38L185.73-4.38L185.73-4.38Q183.04-1.66 179.36-0.19L179.36-0.19L179.36-0.19Q175.68 1.28 172.03 1.28L172.03 1.28L172.03 1.28Q168.38 1.28 167.10 0.64L167.10 0.64L165.12 11.52L152.13 12.80L160.96-32.64L171.39-33.73L170.56-29.31L170.56-29.31Q173.25-33.86 178.82-33.86L178.82-33.86L178.82-33.86Q185.09-33.86 188.42-29.82L188.42-29.82L188.42-29.82Q191.36-26.18 191.36-20.61L191.36-20.61L191.36-20.61Q191.36-15.04 189.89-11.07L189.89-11.07L189.89-11.07Q188.42-7.10 185.73-4.38ZM171.26-22.34L167.87-3.58L167.87-3.58Q169.22-2.43 170.88-2.43L170.88-2.43L170.88-2.43Q172.54-2.43 173.50-3.07L173.50-3.07L173.50-3.07Q174.46-3.71 175.17-4.99L175.17-4.99L175.17-4.99Q177.09-8.45 178.62-18.94L178.62-18.94L178.62-18.94Q179.07-22.02 179.07-25.02L179.07-25.02L179.07-25.02Q179.07-28.03 178.40-28.99L178.40-28.99L178.40-28.99Q177.73-29.95 176.45-29.95L176.45-29.95L176.45-29.95Q172.54-29.95 171.26-22.34L171.26-22.34ZM209.15 1.28L209.15 1.28L209.15 1.28Q195.07 1.28 195.07-11.97L195.07-11.97L195.07-11.97Q195.07-21.38 200.26-27.46L200.26-27.46L200.26-27.46Q205.76-33.92 215.30-33.92L215.30-33.92L215.30-33.92Q222.21-33.92 225.73-30.72L225.73-30.72L225.73-30.72Q229.25-27.52 229.25-20.80L229.25-20.80L229.25-20.80Q229.25-10.56 223.74-4.61L223.74-4.61L223.74-4.61Q218.37 1.28 209.15 1.28ZM210.82-26.56L210.82-26.56L210.82-26.56Q210.05-24.83 209.44-22.24L209.44-22.24L209.44-22.24Q208.83-19.65 208.06-15.55L208.06-15.55L208.06-15.55Q207.30-11.46 207.30-6.40L207.30-6.40L207.30-6.40Q207.30-4.74 207.84-3.65L207.84-3.65L207.84-3.65Q208.38-2.56 209.86-2.56L209.86-2.56L209.86-2.56Q211.33-2.56 212.26-3.26L212.26-3.26L212.26-3.26Q213.18-3.97 213.89-5.63L213.89-5.63L213.89-5.63Q215.17-8.58 216.19-14.05L216.19-14.05L216.19-14.05Q217.22-19.52 217.31-21.89L217.31-21.89L217.31-21.89Q217.41-24.26 217.41-26.02L217.41-26.02L217.41-26.02Q217.41-27.78 216.90-28.93L216.90-28.93L216.90-28.93Q216.38-30.08 214.94-30.08L214.94-30.08L214.94-30.08Q213.50-30.08 212.54-29.18L212.54-29.18L212.54-29.18Q211.58-28.29 210.82-26.56ZM253.06-17.98L253.06-17.98L253.06-17.98Q255.36-22.08 255.36-26.24L255.36-26.24L255.36-26.24Q255.36-28.99 253.38-28.99L253.38-28.99L253.38-28.99Q251.84-28.99 250.24-26.37L250.24-26.37L250.24-26.37Q248.58-23.74 248.06-20.35L248.06-20.35L244.74 0L231.49 1.28L238.02-32.64L248.58-33.92L247.42-27.46L247.42-27.46Q250.56-33.92 257.60-33.92L257.60-33.92L257.60-33.92Q261.31-33.92 263.33-32L263.33-32L263.33-32Q265.34-30.08 265.34-26.14L265.34-26.14L265.34-26.14Q265.34-22.21 262.75-19.71L262.75-19.71L262.75-19.71Q260.16-17.22 255.74-17.22L255.74-17.22L255.74-17.22Q253.82-17.22 253.06-17.98ZM267.39-6.40L267.39-6.40L267.39-6.40Q267.39-8.13 268.29-12.48L268.29-12.48L271.68-29.76L267.90-29.76L268.16-31.68L268.16-31.68Q275.84-33.98 283.26-39.62L283.26-39.62L286.34-39.62L284.80-32.64L289.79-32.64L289.22-29.76L284.29-29.76L281.02-12.48L281.02-12.48Q280.19-8.51 280.19-7.17L280.19-7.17L280.19-7.17Q280.19-4.10 282.88-3.46L282.88-3.46L282.88-3.46Q282.24-1.28 279.94 0L279.94 0L279.94 0Q277.63 1.28 274.37 1.28L274.37 1.28L274.37 1.28Q271.10 1.28 269.25-0.77L269.25-0.77L269.25-0.77Q267.39-2.82 267.39-6.40ZM315.14-10.82L315.14-10.82L315.14-10.82Q316.74-9.73 316.74-7.33L316.74-7.33L316.74-7.33Q316.74-4.93 315.52-3.39L315.52-3.39L315.52-3.39Q314.30-1.86 312.32-0.83L312.32-0.83L312.32-0.83Q308.22 1.28 303.81 1.28L303.81 1.28L303.81 1.28Q299.39 1.28 296.80 0.32L296.80 0.32L296.80 0.32Q294.21-0.64 292.48-2.43L292.48-2.43L292.48-2.43Q289.09-5.82 289.09-12.03L289.09-12.03L289.09-12.03Q289.09-21.70 294.34-27.58L294.34-27.58L294.34-27.58Q299.97-33.92 309.76-33.92L309.76-33.92L309.76-33.92Q315.84-33.92 318.85-31.36L318.85-31.36L318.85-31.36Q321.09-29.44 321.09-26.30L321.09-26.30L321.09-26.30Q321.09-15.04 301.63-15.04L301.63-15.04L301.63-15.04Q301.38-13.38 301.38-11.97L301.38-11.97L301.38-11.97Q301.38-9.02 302.69-7.90L302.69-7.90L302.69-7.90Q304-6.78 306.43-6.78L306.43-6.78L306.43-6.78Q308.86-6.78 311.46-7.90L311.46-7.90L311.46-7.90Q314.05-9.02 315.14-10.82ZM302.08-17.79L302.08-17.79L302.08-17.79Q306.62-17.79 309.25-20.61L309.25-20.61L309.25-20.61Q311.87-23.30 311.87-27.58L311.87-27.58L311.87-27.58Q311.87-29.06 311.33-29.86L311.33-29.86L311.33-29.86Q310.78-30.66 309.70-30.66L309.70-30.66L309.70-30.66Q308.61-30.66 307.68-30.24L307.68-30.24L307.68-30.24Q306.75-29.82 305.79-28.42L305.79-28.42L305.79-28.42Q303.42-25.22 302.08-17.79ZM343.30-17.98L343.30-17.98L343.30-17.98Q345.60-22.08 345.60-26.24L345.60-26.24L345.60-26.24Q345.60-28.99 343.62-28.99L343.62-28.99L343.62-28.99Q342.08-28.99 340.48-26.37L340.48-26.37L340.48-26.37Q338.82-23.74 338.30-20.35L338.30-20.35L334.98 0L321.73 1.28L328.26-32.64L338.82-33.92L337.66-27.46L337.66-27.46Q340.80-33.92 347.84-33.92L347.84-33.92L347.84-33.92Q351.55-33.92 353.57-32L353.57-32L353.57-32Q355.58-30.08 355.58-26.14L355.58-26.14L355.58-26.14Q355.58-22.21 352.99-19.71L352.99-19.71L352.99-19.71Q350.40-17.22 345.98-17.22L345.98-17.22L345.98-17.22Q344.06-17.22 343.30-17.98ZM354.88-3.78L354.88-3.78L354.88-3.78Q354.88-6.21 356.70-7.52L356.70-7.52L356.70-7.52Q358.53-8.83 361.22-8.83L361.22-8.83L361.22-8.83Q363.90-8.83 365.60-7.52L365.60-7.52L365.60-7.52Q367.30-6.21 367.30-3.78L367.30-3.78L367.30-3.78Q367.30-1.34 365.41 0L365.41 0L365.41 0Q363.52 1.34 360.83 1.34L360.83 1.34L360.83 1.34Q358.14 1.34 356.51 0L356.51 0L356.51 0Q354.88-1.34 354.88-3.78ZM358.34-15.81L358.34-15.81L358.34-15.81Q358.34-16.26 358.46-16.90L358.46-16.90L363.46-42.62L363.46-42.62Q365.82-43.52 368.64-43.52L368.64-43.52L368.64-43.52Q371.46-43.52 372.93-41.73L372.93-41.73L372.93-41.73Q374.40-39.94 374.40-37.28L374.40-37.28L374.40-37.28Q374.40-34.62 373.38-31.65L373.38-31.65L373.38-31.65Q372.35-28.67 371.10-25.66L371.10-25.66L371.10-25.66Q369.86-22.66 368.80-19.55L368.80-19.55L368.80-19.55Q367.74-16.45 367.68-13.18L367.68-13.18L367.68-13.18Q366.21-11.52 363.65-11.52L363.65-11.52L363.65-11.52Q361.09-11.52 359.71-12.70L359.71-12.70L359.71-12.70Q358.34-13.89 358.34-15.81ZM373.44-3.78L373.44-3.78L373.44-3.78Q373.44-6.21 375.26-7.52L375.26-7.52L375.26-7.52Q377.09-8.83 379.78-8.83L379.78-8.83L379.78-8.83Q382.46-8.83 384.16-7.52L384.16-7.52L384.16-7.52Q385.86-6.21 385.86-3.78L385.86-3.78L385.86-3.78Q385.86-1.34 383.97 0L383.97 0L383.97 0Q382.08 1.34 379.39 1.34L379.39 1.34L379.39 1.34Q376.70 1.34 375.07 0L375.07 0L375.07 0Q373.44-1.34 373.44-3.78ZM376.90-15.81L376.90-15.81L376.90-15.81Q376.90-16.26 377.02-16.90L377.02-16.90L382.02-42.62L382.02-42.62Q384.38-43.52 387.20-43.52L387.20-43.52L387.20-43.52Q390.02-43.52 391.49-41.73L391.49-41.73L391.49-41.73Q392.96-39.94 392.96-37.28L392.96-37.28L392.96-37.28Q392.96-34.62 391.94-31.65L391.94-31.65L391.94-31.65Q390.91-28.67 389.66-25.66L389.66-25.66L389.66-25.66Q388.42-22.66 387.36-19.55L387.36-19.55L387.36-19.55Q386.30-16.45 386.24-13.18L386.24-13.18L386.24-13.18Q384.77-11.52 382.21-11.52L382.21-11.52L382.21-11.52Q379.65-11.52 378.27-12.70L378.27-12.70L378.27-12.70Q376.90-13.89 376.90-15.81ZM430.78-4.80L430.78-4.80L430.78-4.80Q430.78-9.28 432.58-18.24L432.58-18.24L423.10-18.24L419.58 0L406.21 0L414.34-42.24L427.84-42.24L424.13-23.36L433.60-23.36L437.12-42.24L450.62-42.24L450.62-42.24Q449.73-37.50 448.58-32.19L448.58-32.19L446.40-21.76L446.40-21.76Q443.97-9.60 443.97-4.29L443.97-4.29L443.97-4.29Q443.97-2.11 444.67-0.90L444.67-0.90L444.67-0.90Q441.47 1.28 437.73 1.28L437.73 1.28L437.73 1.28Q433.98 1.28 432.38-0.51L432.38-0.51L432.38-0.51Q430.78-2.30 430.78-4.80ZM472.51-7.23L472.51-7.23L472.51-7.23Q469.18-3.78 463.10-3.78L463.10-3.78L463.10-3.78Q455.49-3.78 453.89-9.34L453.89-9.34L453.89-9.34Q453.38-11.01 453.38-12.86L453.38-12.86L453.38-12.86Q453.38-14.72 453.76-16.64L453.76-16.64L456.77-32.64L469.76-33.92L466.24-15.30L466.24-15.30Q466.11-14.46 465.92-13.57L465.92-13.57L465.92-13.57Q465.73-12.67 465.73-11.74L465.73-11.74L465.73-11.74Q465.73-10.82 466.05-10.21L466.05-10.21L466.05-10.21Q466.37-9.60 466.82-9.22L466.82-9.22L466.82-9.22Q467.58-8.70 468.96-8.70L468.96-8.70L468.96-8.70Q470.34-8.70 471.52-10.37L471.52-10.37L471.52-10.37Q472.70-12.03 473.28-14.91L473.28-14.91L476.80-32.64L489.41-33.92L484.61-8.77L484.61-8.77Q482.24 3.52 477.38 8.38L477.38 8.38L477.38 8.38Q474.88 10.88 471.65 11.87L471.65 11.87L471.65 11.87Q468.42 12.86 464.26 12.86L464.26 12.86L464.26 12.86Q457.54 12.86 453.70 10.75L453.70 10.75L453.70 10.75Q449.86 8.64 449.86 5.12L449.86 5.12L449.86 5.12Q449.86 2.50 451.84 0.99L451.84 0.99L451.84 0.99Q453.82-0.51 456.90-0.51L456.90-0.51L456.90-0.51Q459.58-0.51 461.63 0.64L461.63 0.64L461.63 0.64Q462.85 1.34 463.42 2.24L463.42 2.24L463.42 2.24Q461.95 3.52 461.95 5.63L461.95 5.63L461.95 5.63Q461.95 8.45 464.51 8.45L464.51 8.45L464.51 8.45Q468.74 8.45 471.17-1.28L471.17-1.28L471.17-1.28Q471.87-4.16 472.51-7.23ZM521.54-4.38L521.54-4.38L521.54-4.38Q518.85-1.66 515.17-0.19L515.17-0.19L515.17-0.19Q511.49 1.28 507.84 1.28L507.84 1.28L507.84 1.28Q504.19 1.28 502.91 0.64L502.91 0.64L500.93 11.52L487.94 12.80L496.77-32.64L507.20-33.73L506.37-29.31L506.37-29.31Q509.06-33.86 514.62-33.86L514.62-33.86L514.62-33.86Q520.90-33.86 524.22-29.82L524.22-29.82L524.22-29.82Q527.17-26.18 527.17-20.61L527.17-20.61L527.17-20.61Q527.17-15.04 525.70-11.07L525.70-11.07L525.70-11.07Q524.22-7.10 521.54-4.38ZM507.07-22.34L503.68-3.58L503.68-3.58Q505.02-2.43 506.69-2.43L506.69-2.43L506.69-2.43Q508.35-2.43 509.31-3.07L509.31-3.07L509.31-3.07Q510.27-3.71 510.98-4.99L510.98-4.99L510.98-4.99Q512.90-8.45 514.43-18.94L514.43-18.94L514.43-18.94Q514.88-22.02 514.88-25.02L514.88-25.02L514.88-25.02Q514.88-28.03 514.21-28.99L514.21-28.99L514.21-28.99Q513.54-29.95 512.26-29.95L512.26-29.95L512.26-29.95Q508.35-29.95 507.07-22.34L507.07-22.34ZM556.93-10.82L556.93-10.82L556.93-10.82Q558.53-9.73 558.53-7.33L558.53-7.33L558.53-7.33Q558.53-4.93 557.31-3.39L557.31-3.39L557.31-3.39Q556.10-1.86 554.11-0.83L554.11-0.83L554.11-0.83Q550.02 1.28 545.60 1.28L545.60 1.28L545.60 1.28Q541.18 1.28 538.59 0.32L538.59 0.32L538.59 0.32Q536.00-0.64 534.27-2.43L534.27-2.43L534.27-2.43Q530.88-5.82 530.88-12.03L530.88-12.03L530.88-12.03Q530.88-21.70 536.13-27.58L536.13-27.58L536.13-27.58Q541.76-33.92 551.55-33.92L551.55-33.92L551.55-33.92Q557.63-33.92 560.64-31.36L560.64-31.36L560.64-31.36Q562.88-29.44 562.88-26.30L562.88-26.30L562.88-26.30Q562.88-15.04 543.42-15.04L543.42-15.04L543.42-15.04Q543.17-13.38 543.17-11.97L543.17-11.97L543.17-11.97Q543.17-9.02 544.48-7.90L544.48-7.90L544.48-7.90Q545.79-6.78 548.22-6.78L548.22-6.78L548.22-6.78Q550.66-6.78 553.25-7.90L553.25-7.90L553.25-7.90Q555.84-9.02 556.93-10.82ZM543.87-17.79L543.87-17.79L543.87-17.79Q548.42-17.79 551.04-20.61L551.04-20.61L551.04-20.61Q553.66-23.30 553.66-27.58L553.66-27.58L553.66-27.58Q553.66-29.06 553.12-29.86L553.12-29.86L553.12-29.86Q552.58-30.66 551.49-30.66L551.49-30.66L551.49-30.66Q550.40-30.66 549.47-30.24L549.47-30.24L549.47-30.24Q548.54-29.82 547.58-28.42L547.58-28.42L547.58-28.42Q545.22-25.22 543.87-17.79ZM585.09-17.98L585.09-17.98L585.09-17.98Q587.39-22.08 587.39-26.24L587.39-26.24L587.39-26.24Q587.39-28.99 585.41-28.99L585.41-28.99L585.41-28.99Q583.87-28.99 582.27-26.37L582.27-26.37L582.27-26.37Q580.61-23.74 580.10-20.35L580.10-20.35L576.77 0L563.52 1.28L570.05-32.64L580.61-33.92L579.46-27.46L579.46-27.46Q582.59-33.92 589.63-33.92L589.63-33.92L589.63-33.92Q593.34-33.92 595.36-32L595.36-32L595.36-32Q597.38-30.08 597.38-26.14L597.38-26.14L597.38-26.14Q597.38-22.21 594.78-19.71L594.78-19.71L594.78-19.71Q592.19-17.22 587.78-17.22L587.78-17.22L587.78-17.22Q585.86-17.22 585.09-17.98ZM598.46 7.23L598.46 7.23L598.46 7.23Q598.46 5.12 599.81 3.81L599.81 3.81L599.81 3.81Q601.15 2.50 603.20 2.50L603.20 2.50L630.14 2.50L630.14 2.50Q630.46 3.58 630.46 4.42L630.46 4.42L630.46 4.42Q630.46 6.34 629.15 7.68L629.15 7.68L629.15 7.68Q627.84 9.02 625.15 9.02L625.15 9.02L598.72 9.02L598.72 9.02Q598.46 8.19 598.46 7.23ZM648.90 0L641.86 0L649.54-42.24L663.30-42.24L673.28-13.18L678.59-42.24L685.70-42.18L677.89 0L663.23 0L654.02-27.97L648.90 0ZM701.25 1.28L701.25 1.28L701.25 1.28Q687.17 1.28 687.17-11.97L687.17-11.97L687.17-11.97Q687.17-21.38 692.35-27.46L692.35-27.46L692.35-27.46Q697.86-33.92 707.39-33.92L707.39-33.92L707.39-33.92Q714.30-33.92 717.82-30.72L717.82-30.72L717.82-30.72Q721.34-27.52 721.34-20.80L721.34-20.80L721.34-20.80Q721.34-10.56 715.84-4.61L715.84-4.61L715.84-4.61Q710.46 1.28 701.25 1.28ZM702.91-26.56L702.91-26.56L702.91-26.56Q702.14-24.83 701.54-22.24L701.54-22.24L701.54-22.24Q700.93-19.65 700.16-15.55L700.16-15.55L700.16-15.55Q699.39-11.46 699.39-6.40L699.39-6.40L699.39-6.40Q699.39-4.74 699.94-3.65L699.94-3.65L699.94-3.65Q700.48-2.56 701.95-2.56L701.95-2.56L701.95-2.56Q703.42-2.56 704.35-3.26L704.35-3.26L704.35-3.26Q705.28-3.97 705.98-5.63L705.98-5.63L705.98-5.63Q707.26-8.58 708.29-14.05L708.29-14.05L708.29-14.05Q709.31-19.52 709.41-21.89L709.41-21.89L709.41-21.89Q709.50-24.26 709.50-26.02L709.50-26.02L709.50-26.02Q709.50-27.78 708.99-28.93L708.99-28.93L708.99-28.93Q708.48-30.08 707.04-30.08L707.04-30.08L707.04-30.08Q705.60-30.08 704.64-29.18L704.64-29.18L704.64-29.18Q703.68-28.29 702.91-26.56ZM748.35-31.55L748.35-31.55L748.35-31.55Q750.46-33.92 754.11-33.92L754.11-33.92L754.11-33.92Q756.35-33.92 758.08-32.70L758.08-32.70L758.08-32.70Q759.81-31.49 759.81-29.22L759.81-29.22L759.81-29.22Q759.81-26.94 759.10-24.51L759.10-24.51L759.10-24.51Q758.40-22.08 757.31-19.58L757.31-19.58L757.31-19.58Q755.14-14.72 752.13-10.69L752.13-10.69L752.13-10.69Q747.90-4.86 743.84-1.79L743.84-1.79L743.84-1.79Q739.78 1.28 735.36 1.28L735.36 1.28L735.36 1.28Q731.78 1.28 729.60 0.45L729.60 0.45L729.60 0.45Q729.22-12.99 728.74-17.79L728.74-17.79L728.74-17.79Q728.26-22.59 727.87-25.22L727.87-25.22L727.87-25.22Q727.23-30.34 725.31-31.55L725.31-31.55L725.31-31.55Q726.78-32.83 728.22-33.38L728.22-33.38L728.22-33.38Q729.66-33.92 732.64-33.92L732.64-33.92L732.64-33.92Q735.62-33.92 737.73-31.58L737.73-31.58L737.73-31.58Q739.84-29.25 740.26-25.12L740.26-25.12L740.26-25.12Q740.67-20.99 740.67-16L740.67-16L740.67-16Q740.67-11.01 740.29-4.99L740.29-4.99L740.29-4.99Q742.27-6.40 744.38-10.69L744.38-10.69L744.38-10.69Q747.26-16.64 748.29-23.81L748.29-23.81L748.29-23.81Q748.61-25.98 748.61-28.29L748.61-28.29L748.61-28.29Q748.61-30.59 748.35-31.55ZM793.60-16.83L793.60-16.83L793.60-16.83Q794.30-15.49 794.30-12.86L794.30-12.86L794.30-12.86Q794.30-10.24 792.35-8.42L792.35-8.42L792.35-8.42Q790.40-6.59 786.11-6.59L786.11-6.59L785.73-6.59L784.70 0L784.70 0Q782.98 1.28 779.90 1.28L779.90 1.28L779.90 1.28Q775.94 1.28 774.66-1.15L774.66-1.15L774.66-1.15Q774.14-2.05 774.14-2.82L774.14-2.82L774.14-2.82Q774.14-3.71 774.27-4.74L774.27-4.74L774.72-7.17L760.00-8.70L760.00-16.77L783.94-43.58L783.94-43.52L784.00-43.58L792.90-42.62L792.90-42.62Q789.89-30.34 787.33-16.19L787.33-16.19L788.80-16.19L788.80-16.19Q792.45-16.19 793.60-16.83ZM780.74-32.83L766.85-16.64L776.51-16.32L776.51-16.32Q778.62-25.73 780.74-32.83L780.74-32.83Z" fill="url(#editing-gradow-gradient)"></path></g></g><style>text {
  font-size: 64px;
  font-family: Arial Black;
  dominant-baseline: central;
  text-anchor: middle;
}</style></svg>